<?xml version="1.0" standalone="no"?>
<!DOCTYPE svg PUBLIC "-//W3C//DTD SVG 1.1//EN" "http://www.w3.org/Graphics/SVG/1.1/DTD/svg11.dtd" >
<!--
2013-9-30: Created.
-->
<svg>
<metadata>
Created by iconfont
</metadata>
<defs>

<font id="iconfont" horiz-adv-x="1024" >
  <font-face
    font-family="iconfont"
    font-weight="500"
    font-stretch="normal"
    units-per-em="1024"
    ascent="896"
    descent="-128"
  />
    <missing-glyph />
    
    <glyph glyph-name="x" unicode="x" horiz-adv-x="1001"
d="M281 543q-27 -1 -53 -1h-83q-18 0 -36.5 -6t-32.5 -18.5t-23 -32t-9 -45.5v-76h912v41q0 16 -0.5 30t-0.5 18q0 13 -5 29t-17 29.5t-31.5 22.5t-49.5 9h-133v-97h-438v97zM955 310v-52q0 -23 0.5 -52t0.5 -58t-10.5 -47.5t-26 -30t-33 -16t-31.5 -4.5q-14 -1 -29.5 -0.5
t-29.5 0.5h-32l-45 128h-439l-44 -128h-29h-34q-20 0 -45 1q-25 0 -41 9.5t-25.5 23t-13.5 29.5t-4 30v167h911zM163 247q-12 0 -21 -8.5t-9 -21.5t9 -21.5t21 -8.5q13 0 22 8.5t9 21.5t-9 21.5t-22 8.5zM316 123q-8 -26 -14 -48q-5 -19 -10.5 -37t-7.5 -25t-3 -15t1 -14.5
t9.5 -10.5t21.5 -4h37h67h81h80h64h36q23 0 34 12t2 38q-5 13 -9.5 30.5t-9.5 34.5q-5 19 -11 39h-368zM336 498v228q0 11 2.5 23t10 21.5t20.5 15.5t34 6h188q31 0 51.5 -14.5t20.5 -52.5v-227h-327z" />
    

    
    <glyph glyph-name="ttpodicon" unicode="&#58915;" d="M834.431 348.638c4.397-21.457 6.708-43.674 6.708-66.432 0-181.782-147.361-329.139-329.139-329.139-181.782 0-329.143 147.357-329.143 329.139s147.361 329.143 329.143 329.143c90.89 0 173.176-36.841 232.738-96.404l-38.786-38.788c-49.638 49.636-118.212 80.336-193.953 80.336-151.487 0-274.286-122.8-274.286-274.286 0-151.479 122.8-274.282 274.286-274.282 151.483 0 274.293 122.803 274.293 274.282 0 5.95-0.211 11.85-0.584 17.706l48.723 48.725zM820.638 505.153l38.791-38.788c0 0-19.281-19.28-48.743-48.746-69.528-69.528-195.782-195.778-259.36-259.354l0.003-0.003-38.791-38.784-181.010 181.018 38.78 38.791 142.232-142.236c67.11 67.112 204.059 204.065 270.41 270.408 23.139 23.146 37.687 37.694 37.688 37.694z"  horiz-adv-x="1024" />

    
    <glyph glyph-name="fanhui" unicode="&#58880;" d="M738.145103 641.751172 663.234207 716.662069 313.114483 366.542345 312.937931 366.701241 238.768552 292.549517 238.945103 292.372966 238.768552 292.214069 313.679448 217.303172 313.838345 217.462069 658.996966-127.696552 733.166345-53.509517 388.007724 291.631448Z"  horiz-adv-x="1024" />

    
    <glyph glyph-name="tianjia" unicode="&#58887;" d="M895.528512 299.765663c0-18.531052-15.023158-33.55421-33.55421-33.55421L161.454694 266.211453c-18.531052 0-33.55421 15.023158-33.55421 33.55421l0 0c0 18.531052 15.023158 33.55421 33.55421 33.55421l700.519608 0C880.506377 333.319873 895.528512 318.296715 895.528512 299.765663L895.528512 299.765663zM511.715009-84.048863c-18.531052 0-33.55421 15.023158-33.55421 33.55421L478.160799 650.025978c0 18.531052 15.023158 33.55421 33.55421 33.55421l0 0c18.531052 0 33.55421-15.023158 33.55421-33.55421l0-700.519608C545.269219-69.025705 530.246061-84.048863 511.715009-84.048863L511.715009-84.048863z"  horiz-adv-x="1024" />

    
    <glyph glyph-name="gouwu" unicode="&#58938;" d="M884.435006 98.998109 310.703321 98.998109c-13.370958 0-24.849067 9.55423-27.260121 22.707976L170.371879 736.571539 43.765139 736.571539c-15.310352 0-27.722473 12.412121-27.722473 27.71937 0 15.310352 12.412121 27.722473 27.722473 27.722473l149.699491 0c13.374061 0 24.849067-9.557333 27.260121-22.711079l113.074424-614.865455 550.642036 0c15.307248 0 27.71937-12.409018 27.71937-27.71937C912.154376 111.41023 899.742255 98.998109 884.435006 98.998109zM848.784291 234.889115 291.700364 234.889115c-15.307248 0-27.71937 12.412121-27.71937 27.722473s12.412121 27.722473 27.71937 27.722473l537.714812 0 111.150545 303.349139L339.614255 593.6832c-15.307248 0-27.71937 12.412121-27.71937 27.722473 0 15.307248 12.412121 27.71937 27.71937 27.71937l640.620606 0c9.057745 0 17.54143-4.424921 22.726594-11.841164 5.182061-7.416242 6.413964-16.905309 3.301624-25.420024l-131.453673-358.790982C870.806497 242.153309 860.411345 234.889115 848.784291 234.889115zM351.446109-192.013382c-60.732509 0-110.15137 49.431273-110.15137 110.176194 0 60.720097 49.418861 110.120339 110.15137 110.120339s110.15137-49.400242 110.15137-110.120339C461.594376-142.582109 412.178618-192.013382 351.446109-192.013382zM351.446109-27.155588c-30.170764 0-54.709527-24.523248-54.709527-54.6816 0-30.186279 24.541867-54.734352 54.709527-54.734352s54.709527 24.548073 54.709527 54.734352C406.155636-51.678836 381.61377-27.155588 351.446109-27.155588zM830.972897-192.013382c-60.732509 0-110.15137 49.431273-110.15137 110.176194 0 60.720097 49.418861 110.120339 110.15137 110.120339 60.744921 0 110.176194-49.400242 110.176194-110.120339C941.149091-142.582109 891.717818-192.013382 830.972897-192.013382zM830.972897-27.155588c-30.170764 0-54.71263-24.523248-54.71263-54.6816 0-30.186279 24.541867-54.734352 54.71263-54.734352 30.186279 0 54.734352 24.548073 54.734352 54.734352C885.707248-51.678836 861.156073-27.155588 830.972897-27.155588z"  horiz-adv-x="1024" />

    
    <glyph glyph-name="gerenzhongxin" unicode="&#58995;" d="M521.253758 748.440405c-151.108556 0-273.66073-124.69907-273.66073-278.453896 0-103.573937 42.219567-188.17066 124.674511-236.173954-157.355841-51.695383-258.114662-204.087165-263.707031-380.11732l71.295789 0c6.840802 185.413873 140.376121 334.023516 323.610352 337.231581l6.782473 1.633197c3.749394-0.12075 7.318686-1.149173 11.125385-1.149173 151.049205 0.12075 273.483698 124.81982 273.483698 278.574646C794.85616 623.80171 672.363338 748.440405 521.253758 748.440405zM317.187059 469.986509c0 114.676809 91.363847 207.642131 204.066699 207.642131 112.703875 0 204.067722-92.964298 204.067722-207.642131s-91.421152-207.581756-204.067722-207.581756C408.550906 262.404754 317.187059 355.3097 317.187059 469.986509zM713.355961 164.923582c-18.782785-7.018857-22.950711-24.611537-22.950711-24.611537-5.935176-18.171871 13.903661-34.508955 18.144242-37.59627 74.54274-59.866483 124.223233-147.323347 131.361817-249.625314l74.462922 0c-7.198959 119.553886-64.549132 225.184669-151.168931 295.161417C757.972111 154.123608 734.939535 171.39497 713.355961 164.923582z"  horiz-adv-x="1024" />

    
    <glyph glyph-name="duanxin" unicode="&#58906;" d="M207.629339 611.598784l608.485495 0c39.954991 0 76.239382-16.344247 102.536304-42.62275 26.294876-26.295899 42.621726-62.580291 42.621726-102.533234l0-350.788342c0-39.862893-16.32685-76.128865-42.621726-102.426811l0-0.125867c-26.296923-26.278503-62.581314-42.605354-102.536304-42.605354L207.629339-29.503573c-39.845497 0-76.110445 16.32685-102.407368 42.605354l-0.127913 0.125867c-26.278503 26.297946-42.60433 62.563918-42.60433 102.426811L62.489728 466.4428c0 39.952944 16.32685 76.237335 42.60433 102.533234l0.127913 0C131.518894 595.255561 167.784866 611.598784 207.629339 611.598784L207.629339 611.598784zM128.723222 93.806871 339.147722 291.046071 128.740618 488.270944c-1.961678-6.973832-2.996241-14.292518-2.996241-21.829168l0-350.788342C125.744377 108.099389 126.77894 100.762283 128.723222 93.806871L128.723222 93.806871zM385.277342 247.806267 167.930175 44.063957c11.786441-6.5553 25.335015-10.314926 39.699164-10.314926l608.485495 0c14.347776 0 27.89635 3.759627 39.664372 10.350742L638.470925 247.806267l-20.99415-19.684318c-29.821189-27.931143-67.738777-41.913599-105.604176-41.913599-37.863353 0-75.782987 13.982456-105.585757 41.913599L385.277342 247.806267 385.277342 247.806267zM684.597475 291.046071l210.443943-197.240223c1.925862 6.955412 2.977821 14.292518 2.977821 21.847587L898.019239 466.4428c0 7.535627-1.051959 14.855336-2.977821 21.829168L684.597475 291.046071 684.597475 291.046071zM167.930175 538.012835l281.598516-263.944438c17.505699-16.398482 39.896662-24.609491 62.342884-24.609491s44.837184 8.209986 62.346977 24.609491l281.57805 263.907599c-11.786441 6.593162-25.335015 10.351766-39.681768 10.351766L207.629339 548.327762C193.26519 548.327762 179.698197 544.586554 167.930175 538.012835z"  horiz-adv-x="1024" />

    
    <glyph glyph-name="icon32204" unicode="&#58889;" d="M832 552.8l-160 0L672 588c0 54.4-41.6 96-96 96L448 684c-54.4 0-96-41.6-96-96l0-35.2L192 552.8c-70.4 0-128-57.6-128-128l0-384c0-70.4 57.6-128 128-128l640 0c70.4 0 128 57.6 128 128l0 384C960 495.2 902.4 552.8 832 552.8zM416 588c0 19.2 12.8 32 32 32L576 620c19.2 0 32-12.8 32-32l0-35.2L416 552.8 416 588zM192 488.8l640 0c35.2 0 64-28.8 64-64L896 300l-128 0 0 32-96 0 0-32L352 300l0 32L256 332l0-32L128 300l0 124.8C128 460 156.8 488.8 192 488.8zM832-23.2 192-23.2c-35.2 0-64 28.8-64 64L128 236l128 0 0-32 96 0 0 32 320 0 0-32 96 0 0 32 128 0 0-195.2C896 5.6 867.2-23.2 832-23.2z"  horiz-adv-x="1024" />

    
    <glyph glyph-name="xiaoshouhuodong" unicode="&#58953;" d="M150.976-71.904c7.104 108.032 59.392 208.64 143.36 275.904l5.056 3.776 0-0.128c4.736 3.008 10.24 4.48 15.808 4.48 19.264 0 30.784-9.344 30.784-25.344 0-9.28-4.224-17.856-11.264-23.872l0.064-0.128-4.48-3.264c-70.4-51.52-110.08-129.6-117.824-232.256l-0.064-1.28c0-0.768 0.064-1.6 0.064-2.496 0-17.344-13.696-31.36-30.656-31.36-16.384 0-29.76 13.12-30.656 29.632l-0.64 0L150.976-71.904 150.976-71.904zM249.856 454.048c0 156.096 125.632 283.072 280 283.072 154.432 0 280-126.976 280-283.072 0-84.16-36.288-162.624-100.032-216.704 114.368-62.592 190.336-181.632 198.784-313.216l0.32-5.504c0-0.128 0.128-0.256 0.128-0.384l0-0.576 0 0c0-0.256 0-0.512 0-0.768 0-14.656-11.712-26.624-25.92-26.624-14.528 0-26.112 12.032-26.112 26.624 0 0.256 0 0.512 0 0.768l-0.448 0-0.384 5.376c-9.408 125.12-86.784 234.496-197.632 279.616-33.088-15.616-83.456-32-128.704-32-41.984 0-82.688 9.344-121.408 28.16L380.16 215.968 356.992 231.648C288.96 285.792 249.856 366.88 249.856 454.048L249.856 454.048zM529.92 227.872c123.328 0 223.872 101.504 223.872 226.176 0 124.672-100.352 226.112-223.872 226.112-123.392 0-223.808-101.376-223.808-226.112C306.112 329.376 406.528 227.872 529.92 227.872L529.92 227.872zM544.512-125.728c-9.6-10.24-25.856-10.688-36.032-0.96l-65.92 62.976c-10.176 9.728-16.64 29.056-14.464 42.944l23.488 145.6C453.824 138.72 467.2 150.112 481.28 150.112l88.448 0c14.144 0 27.072-11.456 28.8-25.344l18.112-145.024c1.728-13.952-4.672-33.728-14.4-44.032L544.512-125.728zM479.552-3.488c-2.24-13.888 4.224-33.216 14.464-42.944l12.736-12.16c10.176-9.728 26.432-9.344 36.032 0.96l9.216 9.792c9.664 10.24 16.128 30.08 14.4 44.032l-10.112 80.64c-1.728 13.952-14.72 25.344-28.8 25.344L522.176 102.176c-14.08 0-27.456-11.392-29.632-25.28L479.552-3.488z"  horiz-adv-x="1024" />

    
    <glyph glyph-name="tixianedu0101" unicode="&#58937;" d="M956.522496 337.70368c-0.683008 0.941056-26.302464 36.129792-43.730944 60.03712l13.566976 13.468672c12.36992 12.295168 12.36992 32.2048 0 44.450816L638.309376 741.72288c-11.905024 11.782144-32.925696 11.782144-44.80512 0l-522.78784-519.090176c-12.367872-12.284928-12.367872-32.182272 0-44.452864l156.81024-155.66336 0-34.770944 0-15.338496c0-80.764928 149.010432-122.968064 296.214528-122.968064 147.178496 0 296.214528 42.202112 296.214528 122.968064l0 15.338496 0 92.545024 0 107.813888 0 12.60032 129.529856 93.047808c6.796288 4.900864 11.3664 12.28288 12.660736 20.52096C963.514368 322.51264 961.461248 330.957568 956.522496 337.70368L956.522496 337.70368zM227.81952 192.895744c-0.12288-1.589248-0.292864-3.166208-0.292864-4.791296l0-107.860992-120.998912 120.157184 509.391872 500.79232 279.663616-267.74016-165.215232-156.602368c-53.338112 16.89088-140.162048 34.234368-206.626816 34.234368C379.470848 311.108352 233.588736 270.482176 227.81952 192.895744L227.81952 192.895744zM759.918592 40.337152c-8.042496-5.131264-18.112512-10.302464-30.555136-15.326208-11.952128-4.8384-26.129408-9.434112-42.09152-13.601792-35.371008-9.276416-80.1536-16.339968-134.150144-18.223104-9.534464-0.34304-19.433472-0.538624-29.576192-0.538624-1.344512 0-2.640896 0.048128-4.03456 0.048128-27.0336 0.147456-52.016128 1.564672-74.994688 3.887104-4.545536 0.488448-9.043968 0.978944-13.466624 1.539072-26.912768 3.2768-50.674688 7.897088-71.207936 13.2864-15.937536 4.192256-30.114816 8.763392-42.09152 13.601792-12.392448 5.023744-22.490112 10.194944-30.555136 15.326208-14.27456 9.131008-21.876736 17.992704-21.876736 25.008128 0 6.990848 7.552 15.88736 21.85216 24.98048 23.318528-10.290176 50.917376-18.625536 81.082368-25.018368 28.402688-5.977088 59.10528-10.167296 90.63936-12.650496 9.336832-0.683008 18.748416-1.258496 28.207104-1.661952 11.905024-0.538624 23.954432-0.805888 35.909632-0.805888l0.538624 0c19.79904 0 39.548928 0.683008 59.055104 2.05312 1.882112 0.12288 3.741696 0.270336 5.671936 0.415744 21.511168 1.67424 42.630144 4.155392 62.895104 7.503872 9.484288 1.542144 18.700288 3.289088 27.718656 5.146624 30.215168 6.392832 57.73824 14.728192 81.082368 25.018368 14.30016-9.09312 21.876736-17.989632 21.876736-24.98048C781.845504 58.316544 774.268928 49.430272 759.918592 40.337152L759.918592 40.337152zM802.427904 232.617728c-0.587776 0.462848-2.127872 5.451776-11.099136 12.490752-7.259136 5.64736-22.1696 13.5168-23.734272 14.52032 0 0 117.574656 110.244864 118.43072 109.04576 0 0 32.021504-41.701376 37.05856-48.620544L802.427904 232.617728 802.427904 232.617728zM783.507456 181.334784c0-45.906944-125.30176-92.437504-259.741696-92.437504-134.443008 0-260.990976 46.53056-260.990976 92.437504 0 45.904896 126.547968 96.432128 260.990976 96.432128C658.205696 277.766912 783.507456 227.238656 783.507456 181.334784L783.507456 181.334784zM759.918592-60.520704c-8.042496-5.131264-18.112512-10.302464-30.555136-15.326208-11.952128-4.8384-26.129408-9.421824-42.09152-13.601792-35.371008-9.276416-80.1536-16.339968-134.150144-18.223104-9.534464-0.34304-19.433472-0.538624-29.576192-0.538624-1.344512 0-2.640896 0.048128-4.03456 0.048128-27.0336 0.147456-52.016128 1.564672-74.994688 3.887104-4.545536 0.488448-9.043968 0.991232-13.466624 1.539072-26.912768 3.289088-50.674688 7.897088-71.207936 13.2864-15.937536 4.192256-30.114816 8.788992-42.09152 13.601792-12.392448 5.023744-22.490112 10.194944-30.555136 15.326208-14.27456 9.14432-21.876736 17.992704-21.876736 25.008128 0 6.97856 7.552 15.88736 21.85216 24.981504 23.318528-10.2656 50.917376-18.625536 81.082368-25.00608 28.402688-5.989376 59.10528-10.192896 90.63936-12.638208 9.336832-0.708608 18.748416-1.271808 28.207104-1.686528 11.905024-0.538624 23.954432-0.805888 35.909632-0.805888l0.538624 0c19.79904 0 39.548928 0.683008 59.055104 2.052096 1.882112 0.12288 3.741696 0.282624 5.671936 0.44032 21.511168 1.649664 42.630144 4.107264 62.895104 7.479296 9.484288 1.542144 18.700288 3.2768 27.718656 5.158912 30.215168 6.380544 57.73824 14.74048 81.082368 25.00608 14.30016-9.09312 21.876736-18.00192 21.876736-24.981504C781.845504-42.529024 774.268928-51.401984 759.918592-60.520704L759.918592-60.520704zM759.918592-60.520704"  horiz-adv-x="1024" />

    
    <glyph glyph-name="address" unicode="&#58890;" d="M328.704 321.056c6.144-9.216 31.744-48.128 160.768-232.448l1.024-1.024c7.168-9.216 19.456-15.36 30.72-15.36 12.288 0 24.576 6.144 30.72 16.384 55.296 79.872 159.744 230.4 163.84 235.52l1.024 1.024c21.504 35.84 33.792 77.824 33.792 119.808 0 125.952-102.4 229.376-229.376 229.376s-229.376-102.4-229.376-229.376c0-44.032 12.288-86.016 36.864-123.904v0zM520.192 615.968c94.208 0 171.008-76.8 171.008-171.008 0-30.72-8.192-60.416-24.576-89.088-6.144-9.216-90.112-130.048-145.408-209.92-43.008 61.44-136.192 195.584-145.408 207.872-17.408 26.624-27.648 58.368-27.648 90.112 1.024 94.208 77.824 172.032 172.032 172.032zM520.192 316.96c69.632 0 126.976 57.344 126.976 126.976s-57.344 126.976-126.976 126.976c-69.632 0-126.976-57.344-126.976-126.976s56.32-126.976 126.976-126.976zM520.192 513.568c37.888 0 68.608-30.72 68.608-68.608 0-38.912-30.72-68.608-68.608-68.608-37.888 0-68.608 30.72-68.608 68.608s30.72 68.608 68.608 68.608zM1006.592 18.976l-142.336 275.456h-117.76l-46.080-59.392h128l130.048-248.832 2.048-2.048c7.168-9.216 7.168-21.504 2.048-31.744s-15.36-16.384-27.648-16.384h-844.8c-12.288 0-22.528 6.144-27.648 16.384-5.12 11.264-4.096 22.528 3.072 32.768l1.024 1.024 128 249.856h145.408l-48.128 59.392h-133.12l-142.336-276.48c-19.456-27.648-21.504-62.464-6.144-91.136 16.384-30.72 46.080-49.152 80.896-49.152h844.8c33.792 0 64.512 18.432 79.872 49.152 13.312 29.696 10.24 64.512-9.216 91.136z"  horiz-adv-x="1024" />

    
    <glyph glyph-name="iconfontshouye2" unicode="&#58892;" d="M365.661585-128.03261l-76.888158 0c-86.227874 0-156.378583 70.151733-156.378583 156.379607L132.394844 275.268736l-98.257861 0c-8.506744 0-16.125259 5.26184-19.138896 13.214976-3.013637 7.954159-0.793062 16.943904 5.578042 22.579251L499.467057 734.714799c7.741311 6.850012 19.377326 6.850012 27.121707 0L1005.470483 311.063987c6.371104-5.636371 8.591679-14.625092 5.578042-22.579251-3.013637-7.953136-10.633175-13.214976-19.138896-13.214976L893.664048 275.269759l0-246.920716c0-26.369577-7.255241-51.814086-21.564132-75.628468-11.812023-19.658735-28.511357-38.293141-49.635467-55.384401-29.631878-23.974018-73.981968-25.293059-78.941933-25.364691-0.098237-0.001023-0.196475-0.002047-0.294712-0.002047l-82.836637 0c-11.30344 0-20.466124 9.162684-20.466124 20.466124L639.925043 90.490336c0 17.247826-5.406127 33.298384-15.22168 45.194318-8.877181 10.758018-20.335141 16.681938-32.265868 16.681938L433.61628 152.366591c-11.93175 0-23.390733-5.92392-32.267914-16.681938-9.815553-11.895935-15.22168-27.946492-15.22168-45.194318l0-198.056821C386.127709-118.869926 376.965026-128.03261 365.661585-128.03261zM88.160387 316.200984l64.700581 0c11.302417 0 20.466124-9.162684 20.466124-20.466124l0-267.387863c0-63.657832 51.789527-115.447359 115.446335-115.447359l56.422034 0L345.195461 90.490336c0 26.731828 8.729825 52.03512 24.581861 71.245647 16.794501 20.35356 39.46585 31.562856 63.838957 31.562856l158.821215 0c24.37106 0 47.043433-11.209296 63.837934-31.562856 15.852036-19.211551 24.581861-44.51382 24.581861-71.245647l0-177.589674 62.176085 0c9.662057 0.206708 37.936007 3.514033 53.68469 16.256242 37.167504 30.072923 56.013735 63.446008 56.013735 99.19214L852.7318 295.73486c0 11.30344 9.162684 20.466124 20.466124 20.466124l64.689325 0L513.027911 692.060327 88.160387 316.200984z"  horiz-adv-x="1024" />

    
    <glyph glyph-name="xuanzhong" unicode="&#58933;" d="M510.979252 747.476451c-246.843968 0-446.946378-200.101387-446.946378-446.947402 0-246.838851 200.102411-446.941262 446.946378-446.941262 246.838851 0 446.941262 200.102411 446.941262 446.941262C957.920514 547.375064 757.818103 747.476451 510.979252 747.476451L510.979252 747.476451zM436.629917 28.455467 186.047812 284.883721l56.133462 56.127322 194.380082-194.365756L785.068747 499.069895l57.661258-57.541531L436.629917 28.455467 436.629917 28.455467zM436.629917 28.455467"  horiz-adv-x="1024" />

    
    <glyph glyph-name="shaixuan" unicode="&#59229;" d="M814.373679 770.043287c25.716708 0 46.639227-20.922519 46.639227-46.64025 0-11.473309-3.989871-22.084994-11.536754-30.688953-0.780783-0.890276-1.535983-1.804089-2.264577-2.738367L601.415472 435.493791c-10.998495-11.387351-17.145495-26.600845-17.145495-42.432415l0-360.25597L431.682743 156.4781 431.682743 400.776082c0 15.820314-6.138814 31.023574-17.122983 42.408879L177.216167 689.181631c-1.01819 1.439792-2.098801 2.835581-3.238764 4.182252-7.189749 8.498558-10.991332 18.886139-10.991332 30.039153 0 25.717731 20.922519 46.64025 46.639227 46.64025L814.373679 770.043287M814.373679 831.121364 209.626321 831.121364c-59.390645 0-107.717304-48.326659-107.717304-107.718327 0-25.644053 9.007141-50.066279 25.441439-69.490677 1.200338-1.935072 2.618641-3.784186 4.295839-5.465478l238.959394-247.670799L370.605689 141.88166c0-9.16166 4.087085-17.355273 10.518564-22.904663 0.37146-0.346901 0.717338-0.707105 1.107217-1.038656l214.732619-174.042895c5.554506-4.716418 12.341073-7.016811 19.105127-7.016811 8.372691 0 16.697287 3.539616 22.544459 10.43056 5.623068 6.622838 7.782244 15.000646 6.733355 22.982434L645.347031 393.061376l246.888993 255.614725c1.179872 1.179872 2.209318 2.447748 3.154853 3.76065 17.238616 19.651572 26.699082 44.683688 26.699082 70.967308C922.090982 782.795728 873.76944 831.121364 814.373679 831.121364L814.373679 831.121364z"  horiz-adv-x="1024" />

    
    <glyph glyph-name="dianhua" unicode="&#58898;" d="M388.833331-60.777993l0.011256 0c-33.525558 0-64.276932 7.850805-91.424222 23.361057-28.995381 16.564257-51.616588 42.091654-70.773903 71.466682-2.555196 4.597715-2.809999 5.108345-5.387707 9.826809-28.91761 52.922327 3.572362 136.681986 82.681094 198.98189 43.120077 33.945113 90.788749 53.40942 130.801045 53.40942 29.739325 0 53.809533-10.904351 68.384483-30.846542 3.120061-2.042519 8.325619-4.710278 12.595876-4.710278 1.224898 0 3.773953 0 7.592932 4.323469 0.24764 0.257873 0.49528 0.51677 0.744967 0.797156 22.274306 28.887934 42.862203 59.995419 61.23362 92.477204 16.876366 29.857005 31.81459 60.728106 44.409442 91.832522 1.74269 9.830903 0.429789 14.734586-0.689708 16.111956-0.805342 0.99056-3.203972 1.636267-3.225461 1.636267-21.801539 0.514723-41.280172 10.32516-56.779168 28.352745-29.169343 33.94409-41.570791 93.619214-33.159214 159.637814C548.731064 757.093347 604.241332 833.415616 664.968415 833.415616c0.193405 0 1.526773-0.021489 1.730411-0.021489 2.88163-0.065492 5.699816-0.343831 8.463766-0.773619 37.279045 1.655709 71.569012-6.109138 101.374852-23.124673 137.952932-78.818113 140.856052-326.548264 6.623861-563.969629C679.562808 62.311417 521.097704-60.777993 388.833331-60.777993zM434.73987 245.97646c-28.515451 0-65.773006-15.939017-99.686397-42.635029-59.134819-46.550199-85.226057-107.742886-71.882144-132.762723 2.043542-3.832282 3.476171-6.232958 4.597715-8.17417 13.282514-22.988574 33.157167-43.88858 54.602595-56.151881 19.445888-11.122315 41.808198-16.73515 66.459644-16.73515 112.924909 0 257.062703 115.450429 350.541725 280.769638 116.411313 205.886137 122.003682 432.813496 12.208043 495.54012-22.028713 12.562107-48.015573 18.11252-76.420507 16.413831-2.086521-0.107447-4.173043 0.020466-6.215562 0.408299-1.13894 0.236384-2.300392 0.428765-3.485381 0.472767-29.868261 0-69.986981-57.136302-79.721693-133.61002-6.441713-50.55235 1.958608-97.854679 21.405519-120.486118 9.119705-10.605545 16.854876-10.777461 19.390629-10.841929 2.184759 0 25.738198-0.731664 41.569768-20.284999 12.08013-14.908548 15.59928-35.107589 10.457166-59.995419-0.303922-1.461281-0.733711-2.904143-1.291412-4.303003-13.619182-33.880645-29.835516-67.546396-48.208978-100.050694-20.048615-35.449373-42.603307-69.375044-67.050092-100.844779-1.085728-1.399883-2.302439-2.667759-3.615341-3.787256-11.895935-12.111852-26.577309-18.498306-42.678008-18.498306-25.533536 0-45.344744 16.521279-47.520293 18.414395-1.88186 1.63422-3.52836 3.547803-4.849448 5.679349C457.422476 243.998409 444.516538 245.97646 434.73987 245.97646zM355.404987 415.359218c-12.014638 0-22.685675 8.583492-24.931832 20.821211-4.247744 23.169699 0.785899 46.616714 14.164604 66.021669 13.392008 19.382443 33.527604 32.417317 56.70549 36.654828 13.811564 2.517333 27.00812-6.603395 29.534663-20.393469 2.530636-13.788028-6.603395-27.01733-20.391423-29.532617-9.841136-1.807159-18.393929-7.335059-24.072255-15.57472-5.689582-8.216125-7.819083-18.176988-6.024204-28.02938 2.538823-13.788028-6.593162-26.995841-20.382213-29.535687C358.469789 415.511691 356.920504 415.359218 355.404987 415.359218zM269.647835 417.18889c-12.013615 0-22.682605 8.56098-24.920576 20.799722-15.424294 84.069721 40.421618 164.993798 124.487246 180.397626 13.745049 2.515287 27.00812-6.604418 29.534663-20.391423 2.527566-13.767562-6.604418-26.999934-20.382213-29.515221-56.532551-10.369162-94.089935-64.794725-83.72282-121.325229 2.52859-13.791098-6.604418-27.018354-20.393469-29.53671C272.71366 417.338293 271.165398 417.18889 269.647835 417.18889zM171.415556 389.482875c-12.012591 0-22.683628 8.558933-24.930809 20.799722-12.821003 69.933769 2.355651 140.664693 42.7435 199.175295 40.377616 58.511625 101.126188 97.792257 171.059957 110.61326 13.756305 2.51631 26.996864-6.603395 29.534663-20.392446 2.527566-13.789051-6.603395-26.996864-20.392446-29.535687-56.585763-10.366092-105.749486-42.161239-138.437979-89.508593-32.67519-47.368844-44.959981-104.611569-34.590819-161.207565 2.527566-13.767562-6.592139-26.996864-20.38119-29.53671C174.471149 389.609765 172.932096 389.482875 171.415556 389.482875z"  horiz-adv-x="1024" />

    
    <glyph glyph-name="connect" unicode="&#59228;" d="M913.646 642.84l-150.681-255.056c-23.775-40.234-76.41-54.040-117.604-30.774l-37.294 21.029 43.079 72.862c20.581-11.632 46.914-4.73 58.802 15.404l107.601 182.19c11.889 20.102 4.827 45.859-15.755 57.46l-149.115 84.144c-20.58 11.632-46.913 4.731-58.802-15.403l-107.632-182.159c-11.889-20.134-4.825-45.859 15.755-57.492l-43.047-72.863-37.263 21.028c-41.194 23.233-55.287 74.685-31.51 114.952l150.649 255.054c23.775 40.234 76.442 54.041 117.604 30.807l223.703-126.232c41.164-23.233 55.288-74.684 31.511-114.951zM404.37 201.473c-20.581 11.631-27.644 37.359-15.755 57.491l172.189 291.486c11.888 20.134 38.222 27.004 58.802 15.404 20.612-11.633 27.642-37.358 15.755-57.492l-172.189-291.486c-11.89-20.101-38.191-27.003-58.802-15.403zM372.858 316.425v0c-20.581 11.633-46.914 4.731-58.802-15.405l-107.632-182.19c-11.855-20.101-4.825-45.827 15.756-57.46l149.146-84.112c20.582-11.633 46.914-4.731 58.802 15.339l107.633 182.193c11.888 20.133 4.825 45.89-15.788 57.491v0l43.047 72.863 37.293-21.030c41.194-23.232 55.286-74.684 31.511-114.951l-150.649-255.054c-23.775-40.267-76.442-54.072-117.636-30.808l-223.67 126.233c-41.194 23.201-55.287 74.684-31.511 114.951l150.682 255.054c23.745 40.235 76.41 54.042 117.604 30.808l37.263-21.060-43.049-72.863z"  horiz-adv-x="1024" />

    
    <glyph glyph-name="mima" unicode="&#59008;" d="M800.264045 530.025137c0 27.727477 0 79.037022 0 79.368573-1.689477 158.020832-133.200565 286.60629-293.125768 286.60629-160.49416 0-291.957153-128.915986-293.213772-287.653132l0-78.604164c-73.213392-5.662971-131.014785-67.005-131.014785-141.713441l0-373.537088c0-78.369827 63.771355-142.137089 142.068527-142.137089l568.88707 0c78.394386 0 142.068527 63.766239 142.068527 142.137089l0 373.537088C935.933845 464.257313 875.659123 526.742374 800.264045 530.025137L800.264045 530.025137zM263.306143 608.063413c1.022282 127.44038 112.540033 236.055015 241.860225 236.055015 128.896543 0 244.358113-108.327086 245.711946-235.343818 0-2.284017 0-49.79096 0-77.27489L263.306143 531.49972 263.306143 608.063413 263.306143 608.063413zM892.063729 14.492176c0-47.030083-51.212331-95.248222-98.198411-95.248222L224.978248-80.756047c-46.980964 0-96.178407 48.21814-96.178407 95.248222l0 373.537088c0 47.030083 38.260357 99.484706 85.26588 99.484706l568.863534 0c47.005523 0 109.135497-52.454623 109.135497-99.484706L892.064752 14.492176 892.063729 14.492176zM892.063729 14.492176M507.137254 386.032796c-65.027974 0-117.837684-52.264289-117.837684-116.556506 0-36.613859 17.618245-70.710388 46.864307-92.632654l0-118.553998c0-15.738434 12.699217-28.389555 28.364996-28.389555l85.075546 0c15.694431 0 28.413092 12.651122 28.413092 28.389555L578.01751 176.842612c29.246062 21.971385 46.791652 56.018795 46.791652 92.681773C624.810186 333.768507 572.029128 386.032796 507.137254 386.032796L507.137254 386.032796zM550.340175 209.322318c-11.102861-5.994522-18.022451-17.641781-18.022451-30.195689l0-108.093772-48.21814 0L484.099584 179.126629c0 12.553908-6.91959 24.201167-18.022451 30.195689-23.612767 12.743219-31.695855 36.852289-31.695855 62.86573 0 39.706287 32.956566 71.947564 73.446706 71.947564 40.514699 0 73.495824-32.241276 73.495824-71.947564C581.1785 246.174607 573.952942 222.065538 550.340175 209.322318L550.340175 209.322318z"  horiz-adv-x="1024" />

    
    <glyph glyph-name="xx" unicode="&#58919;" d="M511.228427 832.928522c-246.972904 0-447.183785-175.183881-447.183785-391.283638 0-123.506918 65.551972-233.471402 167.695327-305.181631l0-197.902302 195.903785 118.875434c27.107381-4.492314 54.987359-7.075139 83.585697-7.075139 246.972904 0 447.185832 175.181835 447.185832 391.283638C958.414259 657.744641 758.201331 832.928522 511.228427 832.928522L511.228427 832.928522zM511.228427 115.663532c-23.557532 0-48.086182 2.088568-72.906473 6.202259l-23.871687 3.954055-117.402897-71.241554 0 115.828029-27.785833 19.504216c-88.915076 62.427818-139.909493 154.178475-139.909493 251.735371 0 179.744757 171.309644 325.976236 381.876384 325.976236 210.57288 0 381.8815-146.230456 381.8815-325.976236S721.801307 115.663532 511.228427 115.663532L511.228427 115.663532zM511.228427 115.663532M253.555833 442.492182c0-16.70752 6.875594-33.314757 18.691711-45.12985 11.816117-11.811 28.424376-18.691711 45.12985-18.691711 16.712637 0 33.319873 6.880711 45.131897 18.691711 11.816117 11.815093 18.695804 28.423353 18.695804 45.12985 0 16.712637-6.879688 33.31885-18.695804 45.134966-11.811 11.811-28.41926 18.691711-45.131897 18.691711-16.706497 0-33.313733-6.880711-45.12985-18.691711C260.431427 475.811032 253.555833 459.204819 253.555833 442.492182L253.555833 442.492182zM253.555833 442.492182M449.730795 442.492182c0-16.70752 6.879688-33.314757 18.695804-45.12985 11.816117-11.811 28.41926-18.691711 45.131897-18.691711 16.706497 0 33.313733 6.880711 45.12985 18.691711 11.816117 11.815093 18.690688 28.423353 18.690688 45.12985 0 16.712637-6.874571 33.31885-18.690688 45.134966-11.816117 11.811-28.424376 18.691711-45.12985 18.691711-16.712637 0-33.314757-6.880711-45.131897-18.691711C456.609459 475.811032 449.730795 459.204819 449.730795 442.492182L449.730795 442.492182zM449.730795 442.492182M645.908826 440.402591c0-16.70752 6.875594-33.313733 18.690688-45.12985 11.816117-11.816117 28.424376-18.691711 45.131897-18.691711 16.711614 0 33.313733 6.875594 45.12985 18.691711 11.816117 11.816117 18.696828 28.423353 18.696828 45.12985 0 16.712637-6.880711 33.319873-18.696828 45.131897-11.816117 11.815093-28.41926 18.695804-45.12985 18.695804-16.70752 0-33.314757-6.880711-45.131897-18.695804C652.78442 473.722464 645.908826 457.115228 645.908826 440.402591L645.908826 440.402591zM645.908826 440.402591"  horiz-adv-x="1024" />

    
    <glyph glyph-name="jiqiao" unicode="&#58891;" d="M688.39936 342.43072c106.43968 7.44448 190.78144 96.50176 190.78144 204.9792 0 18.80576-2.69824 37.79072-8.00256 56.44288-2.21696 7.78752-8.36608 13.80864-16.19968 15.83616-7.7824 2.04288-16.14336-0.22528-21.84704-5.94432l-39.38816-39.45984c-24.81152-24.8832-68.0704-24.89856-92.91776 0.01536-25.60512 25.6512-25.60512 67.41504 0 93.09696l39.36256 39.42912c5.7344 5.71904 7.98208 14.03904 5.94432 21.87264-2.01216 7.83872-8.02816 14.01344-15.7952 16.2304-18.6368 5.30432-37.59104 8.0128-56.35584 8.0128-113.16224 0-205.21472-92.21632-205.21472-205.5424 0-10.78784 0.96256-21.81632 2.79552-32.9216l-26.99264-24.73984L314.27584 620.26752c12.09344 25.45664 7.71072 56.86784-13.30176 77.90592l-48 48.09216c-8.9088 8.91904-23.33696 8.91904-32.24064 0L156.25216 681.66656c-8.9088-8.92416-8.9088-23.36256 0-32.28672l48-48.08704c12.91776-12.94336 30.11072-20.0704 48.36352-20.0704 10.36288 0 20.352 2.37056 29.44 6.72768l128.85504-129.05984L189.6448 256.08192c-25.84576-25.89696-40.07936-60.29824-40.07936-96.90624 0-36.608 14.2336-71.00928 40.07936-96.86528 25.85088-25.9072 60.20608-40.1408 96.72704-40.1408 36.5312 0 70.89152 14.24896 97.408 40.86272l155.61216 170.30656 184.09984-184.41728c17.23904-17.26464 40.12544-26.75712 64.4864-26.75712 24.38144 0 47.26272 9.49248 64.46592 26.75712 17.24928 17.2288 26.74176 40.16128 26.74176 64.5632 0 24.41216-9.49248 47.36-26.7264 64.60928L688.39936 342.43072zM268.73344 633.58976c-8.63744-8.63232-23.59808-8.63232-32.24064 0l-31.88736 31.93344 32.24064 32.29696 31.88736-31.93344C277.62176 656.97792 277.62176 642.48832 268.73344 633.58976zM350.85312 94.60736c-34.44736-34.50368-94.47936-34.53952-128.96768 0.01536-17.23392 17.23392-26.71616 40.16128-26.71616 64.55296s9.48736 47.34464 25.98912 63.90784l290.61632 266.34752c0.22016 0.19968 0.36864 0.44032 0.57856 0.65024 0.5632 0.55808 1.0752 1.152 1.57696 1.7664 0.46592 0.56832 0.92672 1.13152 1.33632 1.73056 0.39936 0.60416 0.7424 1.2288 1.08544 1.8688 0.3584 0.6656 0.72192 1.32096 1.00352 2.01216 0.29184 0.67584 0.50176 1.37216 0.72192 2.0736 0.20992 0.6912 0.43008 1.37216 0.57344 2.0736 0.1536 0.7424 0.23552 1.49504 0.31744 2.25792 0.08192 0.71168 0.1536 1.41824 0.15872 2.13504 0.01024 0.72704-0.0512 1.45408-0.10752 2.18624-0.06656 0.7936-0.14848 1.57184-0.30208 2.3552-0.0512 0.28672-0.04096 0.56832-0.10752 0.85504-2.81088 12.2368-4.23424 24.35584-4.23424 36.01408 0 88.84224 73.2416 160.27648 161.7664 159.85152l-7.57248-7.58784c-43.35104-43.47392-43.35104-114.2016 0-157.65504 21.04832-21.08416 48.97792-32.70144 78.73024-32.70144 29.75744 0 57.69728 11.61728 78.71488 32.6912l7.54176 7.55712c0.03072-0.7168 0.03072-1.4336 0.03072-2.15552 0-88.15616-71.59808-159.85664-159.59552-159.85664-11.78112 0-23.85408 1.408-35.8912 4.21888-0.30208 0.07168-0.59904 0.05632-0.90112 0.11264-0.7936 0.14848-1.59232 0.23552-2.39616 0.30208-0.68096 0.05632-1.3568 0.10752-2.02752 0.10752-0.81408-0.01024-1.62304-0.09216-2.43712-0.18432-0.64-0.0768-1.27488-0.13824-1.89952-0.26624-0.83456-0.16896-1.64352-0.41984-2.4576-0.68096-0.57344-0.18944-1.152-0.3584-1.70496-0.5888-0.78336-0.32256-1.53088-0.72192-2.2784-1.13664-0.55808-0.31232-1.11616-0.60928-1.64864-0.96256-0.63488-0.42496-1.23392-0.90624-1.83296-1.39776-0.59904-0.49152-1.17248-0.98816-1.72544-1.54112-0.20992-0.20992-0.45568-0.36352-0.66048-0.5888L350.85312 94.60736zM820.21376 81.21856c-17.23392-17.25952-47.25248-17.25952-64.48128 0l-177.1008 177.40288 64.47616 64.57856 177.10592-177.39776c8.62208-8.63744 13.35808-20.10112 13.35808-32.31744C833.57696 101.29408 828.83584 89.84064 820.21376 81.21856zM286.37184 204.87168c-25.18016 0-45.60384-20.48512-45.60384-45.68576 0-25.2416 20.41856-45.68064 45.60384-45.68064 25.20576 0 45.59872 20.43904 45.59872 45.68064C331.97056 184.38656 311.57248 204.87168 286.37184 204.87168z"  horiz-adv-x="1024" />

    
    <glyph glyph-name="yuan" unicode="&#58911;" d="M530.432 378.368m-423.424 0a82.7 82.7 0 1 0 846.848 0 82.7 82.7 0 1 0-846.848 0Z"  horiz-adv-x="1024" />

    
    <glyph glyph-name="kefu" unicode="&#58936;" d="M516.667511 88.136693c5.004179 0 10.095748 0.308016 15.221701 0.916884 49.157857 5.899573 90.900417 40.259787 106.306927 87.609664 1.163296 3.541463-0.515747 7.336502-3.906784 8.892339-3.352356 1.561567-7.409566 0.212029-9.306369-2.965546-0.179079-0.302285-19.710133-31.848813-95.745574-42.117909-11.382251-1.527184-22.457919-2.328025-32.956236-2.328025-53.270939 0.034383-77.00963 20.112702-77.22739 20.297512-2.680452 2.383897-6.772045 2.445501-9.519831 0.123206-2.775006-2.322294-3.413959-6.358015-1.521454-9.446767C431.202495 111.522956 472.816118 88.136693 516.667511 88.136693L516.667511 88.136693zM516.667511 88.136693M925.504492 559.366173c-0.670471 0-1.280772-0.123206-1.918292-0.123206C879.03425 752.120901 708.803342 896 504.703612 896c-209.712777 0-383.850469-151.824469-422.446972-352.685021C44.728879 536.561558 16.165088 503.576669 16.165088 463.6865l0-159.653796c0-44.746787 35.883101-81.032457 80.188637-81.032457 24.992242 0 47.051889 11.802012 61.726326 29.927655 35.457609-93.781437 107.642139-169.397117 198.995267-209.293016 0.21776 0.475633 1.946945 3.83945 4.028557 6.519902 1.438361 1.858122 3.050071 3.379576 4.432559 3.379576 1.432631 0 2.747786-0.520045 3.872401-1.313722-21.142764 15.741746-97.51344 96.656727-114.056026 209.572379-7.257707 49.699391 29.967769 98.487629 73.322038 106.557638 69.600064 12.959577 138.836239 27.722836 208.436303 40.437434 44.243933 8.070009 74.479604 32.340205 92.969135 72.750419 4.332275 9.446767 10.588573 28.546599 13.459565 56.091789 0.760727 4.095891 4.118813 7.240515 8.422436 7.240515 2.870992 0 5.310762-1.465581 6.928202-3.575846l1.919725 1.191949c27.432012-39.827133 81.833297-128.012715 89.645432-220.999042 8.971133-106.311225 3.966954-179.124679-77.406468-253.615744-0.095986-0.094554-0.219192-0.212029-0.336668-0.308016-1.130346-1.219169-1.802249-2.807956-1.802249-4.554333 0-2.289344 1.220601-4.24775 2.988468-5.439699 0.671904-0.275065 1.343808-0.643251 2.015711-0.918316 0.547265-0.123206 1.068742-0.302285 1.61744-0.302285 0.552995 0 1.04009 0.179079 1.527184 0.302285 1.158998 0.610301 2.254961 1.315155 3.385306 1.925456 82.293172 45.335598 145.423475 121.045832 174.596134 212.108136 11.809175-17.543995 30.298706-30.16977 51.776705-34.573676C874.366739 79.429164 734.623645-18.634406 561.493092-33.519439c-10.375111 25.73721-35.916051 44.014712-65.91104 44.014712-39.173853 0-70.938141-31.026483-70.938141-69.264828 0-38.239778 31.758557-69.230445 70.938141-69.230445 31.585209 0 58.037302 20.291781 67.220464 48.172207 200.406408 16.290443 361.057315 135.410819 394.595199 320.495243 29.626803 12.38366 50.432898 41.450304 50.432898 75.380729L1007.830614 477.593046C1007.830614 522.743835 970.969026 559.366173 925.504492 559.366173L925.504492 559.366173zM851.573585 512.961832C799.305488 654.551588 663.860285 755.698179 504.524533 755.698179c-158.669579 0-293.627687-100.289878-346.382879-240.96275-2.624579 3.211958-5.703303 5.959744-8.724721 8.741912C179.282985 694.900199 326.816725 825.23664 504.703612 825.23664c177.035904 0 324.10977-129.054237 354.955741-299.286578C856.610715 521.854171 853.801326 517.579201 851.573585 512.961832L851.573585 512.961832zM851.573585 512.961832M357.086779 43.634886c-0.005731 0-0.005731 0-0.011461 0C357.042368 43.563255 357.042368 43.551794 357.086779 43.634886L357.086779 43.634886zM357.086779 43.634886"  horiz-adv-x="1024" />

    
    <glyph glyph-name="lianxiren" unicode="&#59064;" d="M752.941176 865.882353 271.058824 865.882353C181.639529 865.882353 107.459765 800.647529 93.063529 715.294118l61.771294 0C168.267294 767.186824 214.979765 805.647059 271.058824 805.647059l481.882353 0c66.56 0 120.470588-53.910588 120.470588-120.470588l0-602.352941c0-66.56-53.910588-120.470588-120.470588-120.470588L271.058824-37.647059c-56.079059 0-102.791529 38.460235-116.224 90.352941L93.063529 52.705882c14.396235-85.353412 88.576-150.588235 177.995294-150.588235l481.882353 0c99.719529 0 180.705882 80.986353 180.705882 180.705882L933.647059 685.176471C933.647059 784.865882 852.660706 865.882353 752.941176 865.882353zM90.352941 534.588235l60.235294 0 0-60.235294-60.235294 0 0 60.235294ZM90.352941 293.647059l60.235294 0 0-60.235294-60.235294 0 0 60.235294ZM30.117647 655.058824l120.470588 0 0-60.235294-120.470588 0 0 60.235294ZM30.117647 173.176471l120.470588 0 0-60.235294-120.470588 0 0 60.235294ZM30.117647 414.117647l120.470588 0 0-60.235294-120.470588 0 0 60.235294ZM344.244706 589.131294l79.299765-79.540706-31.653647-16.353882c-5.511529-2.861176-10.541176-6.535529-14.938353-10.932706-14.637176-14.637176-25.690353-41.351529-12.8-72.463059 3.463529-8.402824 14.064941-33.972706 87.220706-103.634824 80.293647-76.438588 97.581176-76.438588 115.892706-76.438588 15.992471 0 32.436706 6.746353 43.730824 18.100706 4.397176 4.397176 8.071529 9.426824 10.872471 14.968471l16.233412 31.563294 79.36-79.390118-20.178824-20.389647c-5.029647-3.614118-32.135529-21.564235-76.197647-21.564235-64.331294 0-136.282353 39.032471-208.082824 112.880941-171.640471 176.489412-96.346353 274.371765-89.780706 282.172235L344.244706 589.131294M343.521882 654.998588c-11.565176 0-22.919529-4.306824-31.503059-12.890353L279.792941 609.882353C271.058824 601.148235 155.407059 464.414118 369.844706 243.952941c100.382118-103.273412 187.151059-131.132235 251.241412-131.132235 69.541647 0 112.368941 32.768 117.097412 37.466353l31.954824 32.225882c17.769412 18.070588 17.167059 47.585882-1.536 66.529882l-102.098824 102.128941c-9.667765 9.667765-22.287059 14.576941-34.665412 14.576941-11.474824 0-22.738824-4.216471-31.292235-12.769882l-32.195765-62.644706c-0.240941-0.240941-0.602353-0.361412-1.054118-0.361412-15.992471 0-160.888471 136.553412-147.727059 149.714824L481.882353 471.943529c17.769412 17.769412 16.865882 47.585882-1.807059 66.258824l-101.797647 102.098824C368.489412 650.089412 355.870118 654.998588 343.521882 654.998588L343.521882 654.998588z"  horiz-adv-x="1024" />

    
    <glyph glyph-name="mima1" unicode="&#58905;" d="M480.651 193.011l0-79.452c0-17.084 14.077-30.946 31.349-30.946s31.324 13.859 31.324 30.946l0 79.452c24.644 11.615 41.777 36.23 41.777 64.975 0 39.902-32.724 72.228-73.101 72.228-40.402 0-73.127-32.318-73.127-72.228 0-28.72 17.135-53.338 41.777-64.975M852.865 493.666l-559.459 0c1.754 4.502 2.82 9.337 2.82 14.452l0 42.891c0 117.578 96.797 213.217 215.773 213.217 118.977 0 215.751-95.638 215.751-213.217 0-22.532 18.506-40.83 41.328-40.83 22.843 0 41.301 18.293 41.301 40.83 0 162.579-133.857 294.845-298.401 294.845-164.545 0-298.429-132.273-298.429-294.845l0-42.891c0-5.119 1.066-9.951 2.798-14.452l-45.238 0c-34.17 0-61.966-26.704-61.966-59.524l0-452.475c0-32.815 27.798-59.549 61.966-59.549l681.731 0c34.144 0 61.966 26.727 61.966 59.549l0 452.475c0.023 32.815-27.798 59.524-61.937 59.524M832.203 3.798l-640.381 0 0 408.233 640.381 0 0-408.233z"  horiz-adv-x="1024" />

    
    <glyph glyph-name="duanxin1" unicode="&#58893;" d="M189.866667 230.4M292.266667 422.4m-64 0a3 3 0 1 0 128 0 3 3 0 1 0-128 0ZM518.4 422.4m-64 0a3 3 0 1 0 128 0 3 3 0 1 0-128 0ZM746.666667 422.4m-64 0a3 3 0 1 0 128 0 3 3 0 1 0-128 0ZM283.733333-44.8c-10.666667 0-23.466667 4.266667-32 12.8-17.066667 17.066667-19.2 46.933333 0 64l78.933333 81.066667c10.666667 10.666667 25.6 14.933333 40.533333 12.8 25.6-4.266667 100.266667-17.066667 138.666667-17.066667 232.533333 0 420.266667 140.8 420.266667 315.733333 0 174.933333-187.733333 315.733333-420.266667 315.733333-232.533333 0-420.266667-140.8-420.266667-315.733333C91.733333 349.866667 128 277.333333 192 219.733333c12.8-10.666667 27.733333-23.466667 42.666667-32 21.333333-12.8 27.733333-42.666667 12.8-64-12.8-21.333333-42.666667-27.733333-64-12.8-19.2 12.8-36.266667 25.6-53.333333 40.533333C46.933333 226.133333 0 322.133333 0 424.533333 0 648.533333 230.4 832 512 832c281.6 0 512-183.466667 512-407.466667 0-224-230.4-407.466667-512-407.466667-38.4 0-98.133333 8.533333-132.266667 14.933333l-64-64C307.2-40.533333 296.533333-44.8 283.733333-44.8z"  horiz-adv-x="1024" />

    
    <glyph glyph-name="zhanghu" unicode="&#58888;" d="M637.159558 286.801261c-5.548366 1.785669-40.912805 17.708314-18.811438 84.791152l-0.344854 0c57.43613 59.21566 101.399411 154.476257 101.399411 248.267387 0 144.41818-95.879698 219.996506-207.30751 219.996506-111.612007 0-206.928886-75.578326-206.928886-219.996506 0-94.101191 43.61024-189.741435 101.456716-248.986771 22.547529-59.024302-17.775852-80.969103-26.145473-84.071767-116.758214-42.286082-253.740028-119.212102-253.740028-195.167005l0-28.528754c0-103.539144 200.686718-127.112026 386.359488-127.112026 186.080046 0 384.16552 23.571858 384.16552 127.112026l0 28.528754C897.262504 169.906947 759.592005 246.176005 637.159558 286.801261L637.159558 286.801261z"  horiz-adv-x="1024" />

    
    <glyph glyph-name="jinru" unicode="&#58963;" d="M246.784 754.176 357.376 865.28 838.656 384 357.376-97.28 246.784 13.824 616.96 384Z"  horiz-adv-x="1024" />

    
    <glyph glyph-name="wuliu" unicode="&#58886;" d="M288.704846 246.414097 193.973568 246.414097 193.973568 181.004405 288.704846 181.004405 354.114537 181.004405 354.114537 246.414097 354.114537 429.110132 288.704846 429.110132ZM933.779736 765.180617l-451.101322 0c-49.621145 0-90.220264-40.599119-90.220264-90.220264l0-13.53304L315.770925 661.427313c-38.343612 0-54.132159-27.066079-60.898678-38.343612-2.255507-4.511013-4.511013-6.76652-6.76652-11.277533l-248.105727-383.436123 0-223.295154c0-42.854626 33.832599-76.687225 76.687225-76.687225l108.264317 0c13.53304-33.832599 45.110132-56.387665 81.198238-56.387665s67.665198 22.555066 81.198238 56.387665l227.806167 0c13.53304-33.832599 45.110132-56.387665 81.198238-56.387665 36.088106 0 67.665198 22.555066 81.198238 56.387665l85.709251 0c42.854626 0 76.687225 33.832599 76.687225 76.687225l0 130.819383 29.321586 0c49.621145 0 90.220264 40.599119 90.220264 90.220264l0 451.101322C1024 724.581498 983.400881 765.180617 933.779736 765.180617zM956.334802 674.960352l0-451.101322c0-13.53304-11.277533-22.555066-22.555066-22.555066l-451.101322 0c-13.53304 0-22.555066 11.277533-22.555066 22.555066l0 451.101322c0 13.53304 11.277533 22.555066 22.555066 22.555066l451.101322 0C945.057269 697.515419 956.334802 688.493392 956.334802 674.960352zM830.026432 0.563877l-90.220264 0c-13.53304 29.321586-45.110132 49.621145-78.942731 49.621145-33.832599 0-65.409692-20.299559-78.942731-49.621145l-234.572687 0c-15.788546 29.321586-45.110132 49.621145-78.942731 49.621145-33.832599 0-65.409692-20.299559-78.942731-49.621145l-117.286344 0 0 205.251101 241.339207 372.15859c4.511013 4.511013 6.76652 9.022026 9.022026 13.53304l72.176211 0 0-365.39207c0-49.621145 40.599119-90.220264 90.220264-90.220264l345.092511 0L830.026432 0.563877z"  horiz-adv-x="1024" />

    
    <glyph glyph-name="xinxi" unicode="&#58894;" d="M861.491813 52.554192 163.1805 52.554192c-53.377698 0-96.797603 43.418882-96.797603 96.797603L66.382896 621.948367c0 53.377698 43.418882 96.797603 96.797603 96.797603l698.311313 0c53.377698 0 96.797603-43.418882 96.797603-96.797603L958.289416 149.351795C958.289416 95.973074 914.870534 52.554192 861.491813 52.554192zM163.1805 668.260136c-25.538653 0-46.311769-20.773116-46.311769-46.311769L116.868731 149.351795c0-25.538653 20.773116-46.311769 46.311769-46.311769l698.311313 0c25.538653 0 46.311769 20.773116 46.311769 46.311769L907.803581 621.948367c0 25.538653-20.773116 46.311769-46.311769 46.311769L163.1805 668.260136zM395.045046 421.651918l35.694916-35.694916-302.562004-302.562004-35.694916 35.694916 302.562004 302.562004ZM621.543498 419.732602l300.635111-300.635111-35.694916-35.694916-300.635111 300.635111 35.694916 35.694916ZM512.357134 320.463941c-7.436366 0-14.799054 3.270487-19.786649 9.54847-8.66945 10.912537-6.844895 26.78811 4.067642 35.464723l404.65825 321.369312c10.896164 8.627495 26.804483 6.853082 35.464723-4.075829 8.661264-10.912537 6.853082-26.78811-4.075829-35.464723l-404.641877-321.369312C523.392468 322.255751 517.854335 320.463941 512.357134 320.463941zM512.324388 320.463941c-5.529947 0-11.092639 1.808182-15.743566 5.52176L94.567819 647.356037c-10.887978 8.710382-12.662391 24.585955-3.960195 35.481096 8.726755 10.896164 24.610514 12.637832 35.481096 3.960195l402.020166-321.369312c10.879792-8.710382 12.654204-24.585955 3.943822-35.481096C527.0733 323.701682 519.728008 320.463941 512.324388 320.463941z"  horiz-adv-x="1024" />

    
    <glyph glyph-name="buhegepinzhaohui" unicode="&#59137;" d="M694.242-128.003 329.763-128.003C147.915-128.003 0 19.908 0 201.758L0 566.237C0 748.084 147.915 896 329.763 896l364.479 0c181.85 0 329.761-147.916 329.761-329.763l0-364.479C1024.003 19.908 876.092-128.003 694.242-128.003zM329.763 843.917c-153.105 0-277.681-124.575-277.681-277.683l0-364.476c0-153.1 124.575-277.691 277.681-277.691l364.479 0c153.1 0 277.681 124.58 277.681 277.691L971.923 566.237c0 153.105-124.58 277.681-277.681 277.681L329.763 843.918 329.763 843.917zM729.522-34.882 313.038-34.882c-45.678 0-87.328 37.105-95.388 85.63l-60.458 388.199c-4.03 24.262 1.343 48.522 16.123 67.078 14.778 18.552 36.275 28.542 59.113 28.542l577.704 0c22.84 0 45.68-9.99 59.115-28.542 14.78-18.555 20.155-42.815 16.12-67.078l-60.455-388.199C816.852 2.223 775.202-34.882 729.522-34.882L729.522-34.882 729.522-34.882zM232.428 473.199c-6.718 0-12.09-2.855-16.12-7.137-4.033-4.28-5.375-11.417-4.033-18.552l60.458-386.771c2.688-18.55 21.498-35.68 40.305-35.68l416.484 0c18.81 0 36.275 17.13 40.305 35.68l60.46 386.771c1.345 7.135 0 14.272-4.03 18.552-4.03 4.282-9.405 7.137-16.125 7.137L232.428 473.199 232.428 473.199 232.428 473.199zM717.432 563.112c-16.12 0-28.215 12.845-28.215 29.97 0 85.633-90.01 149.855-170.62 149.855-81.955 0-166.595-55.66-166.595-148.428 0-17.125-12.093-29.97-28.215-29.97-16.12 0-28.213 12.845-28.213 29.97 0 129.875 114.198 208.371 223.023 208.371 107.48 0 225.706-85.633 225.706-208.371C745.647 575.957 733.552 563.112 717.432 563.112L717.432 563.112 717.432 563.112zM670.967 222.818c0-19.58-3.41-38.02-10.22-55.315-6.805-17.3-16.13-32.62-27.995-45.975-11.855-13.35-25.82-24.29-41.9-32.81-16.08-8.525-33.395-13.67-51.93-15.455-1.18-0.25-2.24-0.44-3.185-0.57-0.93-0.12-1.99-0.19-3.165-0.19l-60.915 0c-3.99 0-7.918 0.76-11.798 2.285-3.872 1.53-7.335 3.625-10.387 6.3-3.047 2.675-5.575 5.785-7.565 9.345-2 3.56-2.997 7.25-2.997 11.065 0 3.82 0.94 7.505 2.818 11.07 1.875 3.555 4.345 6.61 7.397 9.15s6.453 4.58 10.205 6.11c3.762 1.525 7.632 2.285 11.622 2.285l54.585-0.38c12.44 0 24.175 2.48 35.215 7.435 11.025 4.96 20.65 11.64 28.87 20.03 8.21 8.395 14.67 18.25 19.37 29.565 4.69 11.32 7.03 23.465 7.03 36.445 0 12.2-2.105 23.65-6.33 34.33-4.225 10.68-10.04 20.22-17.43 28.615-7.4 8.385-16.025 15.2-25.885 20.41-9.855 5.215-20.545 8.46-32.04 9.725-0.475 0-0.765-0.06-0.88-0.185s-0.41-0.19-0.885-0.19l-55.988 0 0-30.135c0-4.33-1.585-7.51-4.753-9.545-3.165-2.035-8.275-0.765-15.315 3.815-1.88 1.275-4.87 3.495-8.98 6.685-4.108 3.17-8.917 6.93-14.438 11.245-5.518 4.33-11.328 8.905-17.428 13.74l-17.605 14.495c-3.525 3.05-6.578 5.785-9.16 8.2-2.58 2.415-3.873 5.41-3.873 8.965 0 3.055 1.468 6.24 4.403 9.545 2.938 3.305 6.277 6.605 10.032 9.915 4.228 3.815 9.275 8.26 15.143 13.35 5.873 5.09 11.68 10.05 17.432 14.882 5.748 4.83 10.92 9.22 15.493 13.163 4.575 3.942 7.805 6.675 9.685 8.202 5.635 4.33 10.21 5.213 13.73 2.67 3.523-2.54 5.398-6.358 5.633-11.448l0-30.515 55.988 0c1.175 0 2.41-0.135 3.7-0.385s2.52-0.51 3.7-0.76c18.305-2.035 35.445-7.255 51.41-15.65 15.96-8.385 29.875-19.26 41.72-32.62 11.855-13.345 21.13-28.67 27.825-45.97C667.612 260.463 670.967 242.153 670.967 222.818L670.967 222.818z"  horiz-adv-x="1024" />

    
    <glyph glyph-name="tijiao" unicode="&#58929;" d="M1008.768 876.864c-9.152 6.848-21.376 8-31.488 2.624L19.264 382.656c-10.368-5.376-16.64-16.384-16-28.032C4.032 342.784 11.392 332.608 22.4 328.384l242.368-93.504c15.232-5.888 32.512 1.792 38.4 17.152C309.12 267.328 301.504 284.544 286.144 290.432l-180.608 69.76 775.616 402.24-487.616-545.152c-4.864-5.504-7.488-12.608-7.488-20.032l0-250.368c0-16.448 13.376-29.824 29.888-29.824 16.384 0 29.76 13.376 29.76 29.824l0 239.04 492.48 550.784-124.864-643.008-241.856 86.144c-15.488 5.44-32.512-2.56-38.144-18.048-5.504-15.552 2.624-32.64 18.112-38.144l274.624-97.664c3.264-1.152 6.656-1.728 9.984-1.728 5.12 0 10.24 1.344 14.72 3.968 7.488 4.288 12.864 11.776 14.528 20.16l155.008 799.04C1022.4 858.624 1017.984 870.016 1008.768 876.864L1008.768 876.864z"  horiz-adv-x="1024" />

    
    <glyph glyph-name="gantanhao" unicode="&#59123;" d="M509.214-126.927c-47.482 0-85.942 38.455-85.942 85.945 0 47.475 38.46 85.93 85.942 85.93 47.485 0 85.945-38.455 85.945-85.93C595.159-88.472 556.699-126.927 509.214-126.927zM509.214 153.932c-31.467 0-57 51.015-57 114.005l-57.005 512.999c0 62.987 51.017 114 114.005 114 62.99 0 114.005-51.012 114.005-114l-57.015-512.999C566.204 204.947 540.679 153.932 509.214 153.932z"  horiz-adv-x="1024" />

    
    <glyph glyph-name="suopei" unicode="&#58927;" d="M511.503 895.6l-421.604-133.936 2.136-521.493 0.47-5.645c0.764-3.429 16.995-86.284 98.106-166.102 62.371-61.507 215.337-141.873 280.61-176.175 10.254-5.41 17.916-9.386 22.288-11.839l15.502-8.407 19.037 9.661c38.141 18.721 232.194 115.646 304.288 186.661 81.208 79.879 97.437 162.712 98.126 166.163l2.645 527.137-421.605 133.975M866.145 243.759c-3.055-12.171-20.522-72.192-79.679-130.443-60.115-59.276-228.489-145.405-276.334-169.282-2.53 1.296-5.276 2.687-8.157 4.239-57.39 30.145-209.753 110.177-265.361 165.043-59.313 58.332-76.66 118.27-79.719 130.443l-1.939 471.666 356.548 113.294 356.547-113.295-1.905-471.665M695.558 425.011h-134.132l32.558 259.052-264.106-338.748h134.131l-32.558-259.032 264.107 338.729M695.558 425.011v0z"  horiz-adv-x="1024" />

    
    <glyph glyph-name="13-01" unicode="&#58900;" d="M509.696 891.5968c-152.1664 0-276.9408-124.5696-276.9408-276.7872 0-87.7568 41.6256-166.144 101.632-216.8832C140.5952 328.6016 1.9968 139.4176 1.9968-77.5168c0-27.5968 18.6368-46.0288 46.2336-46.0288 27.6992 0 46.2336 18.432 46.2336 46.0288a413.4912 413.4912 0 0 0 415.232 415.3344c152.32 0 276.992 124.7232 276.992 276.992 0 152.2176-124.672 276.7872-276.992 276.7872z m0-461.5168a185.088 185.088 0 0 0-184.4736 184.6784 185.0368 185.0368 0 0 0 184.4736 184.5248 185.088 185.088 0 0 0 184.6272-184.5248A185.1392 185.1392 0 0 0 509.696 430.08z m364.5952-152.2176a44.544 44.544 0 0 1-64.4096 0 44.3392 44.3392 0 0 1 0-64.6144c78.2336-78.4384 119.7568-179.968 119.7568-290.816 0-27.5968 18.6368-46.0288 46.2336-46.0288 27.6992 0 46.1312 18.432 46.1312 46.0288-4.608 133.888-55.4496 258.5088-147.712 355.4304z"  horiz-adv-x="1024" />

    
    <glyph glyph-name="tuichu" unicode="&#58925;" d="M236.032 748.032c-32.256-23.04-60.928-49.152-86.016-77.824-25.088-29.184-46.592-60.416-64.512-94.208-17.92-33.792-31.744-69.12-40.96-107.008C35.328 431.616 30.72 393.216 30.72 354.816c0-66.56 12.8-129.024 38.4-187.392 25.6-58.368 59.904-109.056 103.424-152.576s94.208-77.824 152.576-103.424c58.368-25.6 120.832-38.4 187.392-38.4 66.048 0 128 12.8 186.368 38.4 58.368 25.6 109.568 59.904 153.088 103.424s78.336 94.208 103.424 152.576c25.088 58.368 37.376 120.832 37.376 187.392 0 37.888-4.608 75.264-13.312 111.616-9.216 36.352-21.504 71.168-38.4 104.448-16.384 32.768-36.864 64-61.44 92.672-24.576 28.672-51.712 54.272-81.92 77.312-15.872 11.264-32.768 15.872-51.2 12.8-18.432-3.072-33.28-11.776-44.544-26.624-11.264-14.848-15.872-31.744-12.8-50.688 3.072-18.432 11.776-33.792 26.624-45.056 45.056-32.768 79.872-73.216 103.936-121.344 24.064-48.128 35.84-99.84 35.84-154.624 0-47.104-8.704-92.16-26.624-133.632-17.92-41.984-42.496-78.336-73.728-109.568-31.232-31.232-67.584-55.808-109.568-74.24-41.984-18.432-86.528-27.648-133.632-27.648-47.104 0-92.16 9.216-133.632 27.648-41.984 18.432-78.336 43.008-109.568 74.24-31.232 31.232-55.808 67.584-74.24 109.568-18.432 41.984-27.648 86.528-27.648 133.632 0 55.808 12.8 108.544 38.912 158.72 25.6 49.664 61.952 90.624 108.544 122.88 15.872 10.752 25.088 25.6 28.672 44.032 3.072 18.432-0.512 35.84-11.264 51.712-10.752 14.848-25.6 24.064-44.032 27.648-18.944 2.048-36.352-1.536-51.712-12.288z m275.968-396.8c18.432 0 34.816 6.656 47.616 19.968 13.312 13.312 19.968 29.184 19.968 47.616V827.392c0 18.432-6.656 34.816-19.968 48.128-13.312 13.824-29.184 20.48-47.616 20.48-19.456 0-35.84-6.656-49.152-20.48-13.312-13.824-19.968-29.696-19.968-48.128v-408.576c0-18.432 6.656-34.816 19.968-47.616 13.824-13.312 29.696-19.968 49.152-19.968z"  horiz-adv-x="1024" />

    
    <glyph glyph-name="xiala" unicode="&#58881;" d="M506.563 470.652l-148.743-148.776c-9.179-9.179-11.897-22.866-6.94-34.859 4.957-11.961 16.63-19.732 29.55-19.733h297.519c12.92 0 24.592 7.803 29.55 19.733 1.631 3.966 2.431 8.123 2.431 12.249 0 8.316-3.262 16.502-9.37 22.611l-148.776 148.776c-6.012 6.012-14.136 9.37-22.611 9.37s-16.63-3.39-22.611-9.37z"  horiz-adv-x="1024" />

    
    <glyph glyph-name="jichuxinxi" unicode="&#58968;" d="M807.84-128H248.16C137.776-128 47.968-43.872 47.968 59.632V708.368C47.968 811.744 137.776 896 248.16 896h559.68c110.432 0 200.192-84.256 200.192-187.632v-648.752C1008.032-43.872 918.288-128 807.84-128zM248.16 824.368c-70.88 0-128.496-52-128.496-116v-648.752c0-64 57.632-116 128.496-116h559.68c70.88 0 128.624 52 128.624 116V708.368c0 64-57.68 116-128.624 116H248.16zM213.968 419.744h71.632v-71.568h-71.632v71.568zM387.024 419.744h433.568v-71.568H387.024v71.568zM213.968 583.248h606.624v-71.632H213.968v71.632zM387.024 256.256h433.568v-71.504H387.024v71.504zM213.968 256.256h71.632v-71.504h-71.632v71.504z"  horiz-adv-x="1024" />

    
    <glyph glyph-name="shuangjiantou" unicode="&#58897;" d="M559.4-4l-61.9 63.9L832.1 384 497.5 708.1l61.9 63.9L960 384zM125.9-4L64 59.9 398.6 384 64 708.1l61.9 63.9 400.6-388z"  horiz-adv-x="1024" />

    
    <glyph glyph-name="caogao" unicode="&#59029;" d="M707.490909 626.036364h-418.909091c-18.618182 0-34.909091 16.290909-34.909091 34.909091s16.290909 34.909091 34.909091 34.90909h418.909091c18.618182 0 34.909091-16.290909 34.909091-34.90909s-16.290909-34.909091-34.909091-34.909091zM707.490909 297.890909h-418.909091c-18.618182 0-34.909091 16.290909-34.909091 34.909091s16.290909 34.909091 34.909091 34.909091h418.909091c18.618182 0 34.909091-16.290909 34.909091-34.909091 0-20.945455-16.290909-34.909091-34.909091-34.909091zM607.418182 460.8H288.581818c-18.618182 0-34.909091 16.290909-34.909091 34.909091s16.290909 34.909091 34.909091 34.909091h318.836364c18.618182 0 34.909091-16.290909 34.909091-34.909091s-13.963636-34.909091-34.909091-34.909091zM730.763636-123.345455H132.654545c-44.218182 0-81.454545 37.236364-81.454545 81.454546V809.890909C51.2 854.109091 88.436364 891.345455 132.654545 891.345455h758.69091c44.218182 0 81.454545-37.236364 81.454545-81.454546V174.545455c0-18.618182-16.290909-34.909091-34.909091-34.909091s-34.909091 16.290909-34.909091 34.909091V809.890909c0 6.981818-4.654545 11.636364-11.636363 11.636364H132.654545c-6.981818 0-11.636364-4.654545-11.636363-11.636364v-849.454545c0-6.981818 4.654545-11.636364 11.636363-11.636364h598.109091c18.618182 0 34.909091-16.290909 34.909091-34.909091s-16.290909-37.236364-34.909091-37.236364zM730.763636-123.345455c-6.981818 0-16.290909 2.327273-20.945454 6.981819-13.963636 11.636364-18.618182 34.909091-4.654546 48.872727l207.127273 262.981818c11.636364 13.963636 34.909091 18.618182 48.872727 4.654546s18.618182-34.909091 4.654546-48.872728l-207.127273-262.981818c-6.981818-6.981818-18.618182-11.636364-27.927273-11.636364zM735.418182-104.727273c-18.618182 0-34.909091 16.290909-34.909091 34.909091l-2.327273 193.163637c0 44.218182 34.909091 79.127273 76.8 81.454545l134.981818 2.327273c18.618182 0 34.909091-16.290909 34.909091-34.909091s-13.963636-34.909091-34.909091-34.909091l-134.981818-2.327273c-4.654545 0-9.309091-4.654545-9.309091-9.309091l4.654546-193.163636c0-20.945455-13.963636-37.236364-34.909091-37.236364z"  horiz-adv-x="1024" />

    
    <glyph glyph-name="financialinfor" unicode="&#59591;" d="M950.309 679.532v33.775c0 100.814-81.879 182.693-182.693 182.693h-584.412c-101.325 0-183.204-81.879-183.204-182.693v-658.615c0-100.814 77.273-182.693 171.946-182.693h679.596c94.673 0 171.946 81.879 171.946 182.693v475.41c0 61.921-29.169 116.166-73.179 149.429zM950.309 55.204c0-60.386-44.522-109.513-98.767-109.513h-679.084c-54.757 0-98.767 49.127-98.767 109.513v658.103c0 60.386 49.639 109.513 110.537 109.513h583.388c60.386 0 109.513-49.127 109.513-109.513v-3.070c-8.7 1.535-16.888 2.559-26.099 2.559h-595.158c-19.958 0-36.334-16.376-36.334-36.334s16.376-36.334 36.334-36.334h595.67c54.757 0 98.767-49.127 98.767-109.513v-475.41zM694.437 237.897c19.958 0 36.334 16.376 36.334 36.334 0 19.958-16.376 36.334-36.334 36.334h-146.359v27.634c11.258 4.094 22.005 9.723 31.728 17.399l137.147 110.025c15.864 12.794 18.423 35.822 5.629 51.174-12.282 15.864-35.31 17.911-51.174 5.629l-137.147-109.513c-13.305-10.747-32.24-10.747-45.545 0l-136.636 109.513c-15.864 12.282-38.893 10.235-51.174-5.629-12.794-15.864-10.235-38.893 5.629-51.174l137.147-110.025c9.723-7.676 20.47-13.817 31.728-17.399v-26.611h-146.359c-19.958 0-36.334-16.376-36.334-36.334s16.376-36.334 36.334-36.334h146.359v-73.179h-146.359c-19.958 0-36.334-16.376-36.334-36.334s16.376-36.334 36.334-36.334h146.359v-36.334c0-19.958 16.376-36.334 36.334-36.334s36.334 16.376 36.334 36.334v36.334h146.359c19.958 0 36.334 16.376 36.334 36.334s-16.376 36.334-36.334 36.334h-146.359v73.179h146.359z"  horiz-adv-x="1024" />

    
    <glyph glyph-name="wodelipei" unicode="&#59280;" d="M931.2 867.2c-12.8 12.8-32 12.8-44.8 0L576 556.8c-12.8-12.8-12.8-32 0-44.8 12.8-12.8 32-12.8 44.8 0L931.2 822.4c12.8 9.6 12.8 32 0 44.8zM480 608H224c-19.2 0-32-12.8-32-32s12.8-32 32-32h256c19.2 0 32 12.8 32 32s-16 32-32 32zM192 352c0-19.2 12.8-32 32-32h480c19.2 0 32 12.8 32 32s-12.8 32-32 32H224c-19.2 0-32-12.8-32-32z m672 256c-19.2 0-32-12.8-32-32v-256c0-57.6-224-320-352-320S128 256 128 320V704c0 35.2 28.8 64 64 64h448c19.2 0 32 12.8 32 32s-12.8 32-32 32H192c-70.4 0-128-57.6-128-128v-384c0-67.2 224-384 416-384 188.8 0 416 297.6 416 384V576c0 19.2-16 32-32 32z"  horiz-adv-x="1024" />

    
    <glyph glyph-name="tuichu1" unicode="&#58901;" d="M511.771963-127.291077c-63.724308 0-125.558154 12.445538-183.768615 37.100308a469.464615 469.464615 0 0 0-150.134154 101.139692 471.118769 471.118769 0 0 0 59.392 717.351385 37.021538 37.021538 0 0 0 43.008-59.864616 403.692308 403.692308 0 0 1-121.304616-139.027692A391.798154 391.798154 0 0 1 113.435963 344.772923c0-106.338462 41.432615-206.375385 116.657231-281.6a395.736615 395.736615 0 0 1 281.678769-116.736c106.338462 0 206.454154 41.432615 281.757539 116.736a395.421538 395.421538 0 0 1 116.65723 281.6 391.483077 391.483077 0 0 1-45.528615 184.635077 403.298462 403.298462 0 0 1-121.304615 138.870154 36.864 36.864 0 0 0 43.008 59.943384 471.04 471.04 0 0 0 59.392-717.430153 471.04 471.04 0 0 0-333.981539-138.161231z m11.106462 512.236308a36.864 36.864 0 0 0-36.94277 36.864V858.978462a37.021538 37.021538 0 0 0 73.964308 0v-437.169231c0-20.48-16.541538-36.864-37.021538-36.864z"  horiz-adv-x="1024" />

    
    <glyph glyph-name="sousuo_sousuo" unicode="&#58912;" d="M1010.255-39.96l-0.028 0.028v-0.029h0.028c9.13-10.666 13.71-22.47 13.71-35.412 0-14.478-5.148-26.85-15.445-37.147a50.686 50.686 0 0 0-37.175-15.445 55.596 55.596 0 0 0-17.72 2.873 47.216 47.216 0 0 0-15.445 8.533l-5.718 4.58-282.529 284.548c-67.837-48.013-143.725-71.99-227.604-71.99-8.391 0-16.953 0.37-25.713 1.109a277.608 277.608 0 0 0-25.742 3.441 368.059 368.059 0 0 0-162.44 59.447c-53.36 34.274-96.054 79.585-128.081 135.988a370.903 370.903 0 0 0-36.038 83.425 408.391 408.391 0 0 0-16.014 90.28 387.173 387.173 0 0 0 5.149 91.417 377.331 377.331 0 0 0 50.344 137.723 380.375 380.375 0 0 0 98.358 109.138c33.563 26.68 71.109 47.244 112.665 61.722A384.926 384.926 0 0 0 422.329 896c18.317 0 35.838-1.138 52.649-3.442 44.969-6.087 88.032-19.796 129.218-41.129a381.484 381.484 0 0 0 107.545-82.287c35.81-37.346 63.06-81.519 81.747-132.575 18.687-51.056 26.907-102.852 24.603-155.415-3.043-87.634-33.165-166.48-90.365-236.564l283.639-284.549h-1.11z m-251.64 522.25a320.558 320.558 0 0 1-22.868 137.126 323.573 323.573 0 0 1-40.048 75.432c-16.782 23.608-36.408 44.741-58.878 63.429a338.477 338.477 0 0 1-72.616 46.306A332.277 332.277 0 0 1 385.779 833.14a52.62 52.62 0 0 1-10.297-1.138l-6.883-1.138a324.568 324.568 0 0 1-135.533-54.27 323.26 323.26 0 0 1-98.927-106.862c-28.187-46.448-43.632-98.272-46.334-155.415-2.674-57.143 7.794-110.105 31.458-158.857a319.99 319.99 0 0 1 86.326-114.286 330.57 330.57 0 0 1 126.375-67.44c48.809-13.709 97.988-16.383 147.536-7.992a332.618 332.618 0 0 1 75.517 22.84 345.816 345.816 0 0 1 68.037 39.423 346.356 346.356 0 0 1 57.2 53.73c17.152 20.195 31.459 42.096 42.893 65.704v-0.028a328.152 328.152 0 0 1 35.469 134.879z"  horiz-adv-x="1024" />

    
    <glyph glyph-name="huabanfuben" unicode="&#58895;" d="M512 657.066667l-119.466667-206.848h238.933334L512 657.066667zM391.168 320.170667L512 110.933333l120.832 209.237334h-241.664z"  horiz-adv-x="1024" />

    
    <glyph glyph-name="xiala1" unicode="&#58939;" d="M534.1 286.5c-6-6-13.3-9-22-9s-16.3 3-23 9l-149 149c-6 6-9 13.7-9 23 0 4 1 7.8 3 11.8 5.3 13.3 15 19.8 29 19.8h298c14 0 23.7-6.4 29-19.8s3-24.9-7-34.9l-149-148.9z"  horiz-adv-x="1024" />

    
    <glyph glyph-name="bangzhu" unicode="&#58972;" d="M512-128A512 512 0 1 0 512 896a512 512 0 0 0 0-1024z m0 73.142857A438.857143 438.857143 0 1 1 512 822.857143a438.857143 438.857143 0 0 1 0-877.714286zM503.149714 676.571429c51.419429 0 92.379429-13.677714 123.757715-42.569143 29.696-27.355429 44.982857-65.097143 44.982857-113.371429 0-36.132571-10.459429-67.510857-30.500572-94.061714-8.045714-9.581714-29.769143-30.500571-65.097143-61.878857a165.522286 165.522286 0 0 1-37.814857-44.178286 112.201143 112.201143 0 0 1-15.286857-58.660571v-18.505143h-64.292571V261.851429c0 26.477714 4.827429 49.810286 14.482285 69.924571 11.264 24.137143 37.741714 54.637714 81.188572 93.184 12.873143 12.873143 22.454857 22.528 27.282286 28.964571 16.091429 20.114286 24.137143 40.96 24.137142 63.488 0 32.182857-9.654857 57.051429-27.355428 74.752-18.432 19.309714-44.982857 28.16-78.701714 28.16-40.228571 0-69.924571-12.873143-89.234286-39.424-17.700571-22.454857-26.550857-53.028571-26.550857-92.379428h-63.488c0 56.246857 15.286857 101.229714 47.396571 135.021714C400.237714 658.870857 445.220571 676.571429 503.222857 676.571429z m-12.068571-489.472c13.604571 0 25.673143-4.022857 35.328-13.677715a46.08 46.08 0 0 0 13.677714-33.792 44.324571 44.324571 0 0 0-14.482286-34.523428 49.298286 49.298286 0 0 0-34.523428-13.677715 49.298286 49.298286 0 0 0-34.596572 13.677715 46.08 46.08 0 0 0-13.677714 34.523428 43.154286 43.154286 0 0 0 13.677714 33.792 46.08 46.08 0 0 0 34.596572 13.677715z"  horiz-adv-x="1024" />

    


  </font>
</defs>
</svg>
